<svg width="24" height="24" xmlns="http://www.w3.org/2000/svg" xml:space="preserve" version="1.2" baseProfile="tiny">

 <g>
  <title>Layer 1</title>
  <path id="svg_1" d="m19.57,10.56006c-0.391,-0.144 -2.512,-0.406 -3.883,-0.56c0.215,-1.255 0.313,-2.405 0.313,-3.616c0,-1.379 -1.122,-2.5 -2.5,-2.5s-2.5,1.121 -2.5,2.5c0,1.875 -0.666,2.738 -1.616,3.699c-0.548,-0.722 -1.407,-1.199 -2.384,-1.199c-1.654,0 -3,1.346 -3,3l0,6c0,1.654 1.346,3 3,3c0.755,0 1.438,-0.29 1.965,-0.752c0.064,0.062 0.117,0.141 0.188,0.193c0.96,0.736 3.667,1.559 5.848,1.559c1.879,0 2.608,-0.293 3.253,-0.553c0.104,-0.041 0.207,-0.084 0.316,-0.123c0.834,-0.305 1.576,-1.227 1.736,-2.2l0.666,-5.974c0.173,-1.037 -0.443,-2.125 -1.402,-2.474zm-12.57,8.324c-0.551,0 -1,-0.448 -1,-1l0,-6c0,-0.552 0.449,-1 1,-1s1,0.448 1,1l0,6c0,0.552 -0.449,1 -1,1zm11.327,-0.15c-0.037,0.224 -0.292,0.541 -0.443,0.596c-0.131,0.049 -0.254,0.099 -0.376,0.146c-0.545,0.219 -1.016,0.408 -2.508,0.408c-1.914,0 -4.118,-0.753 -4.632,-1.146c-0.158,-0.12 -0.368,-0.564 -0.368,-0.854l0,-4.98c0.003,-0.047 0.051,-0.656 0.707,-1.312c0.913,-0.914 2.293,-2.294 2.293,-5.208c0,-0.275 0.225,-0.5 0.5,-0.5s0.5,0.225 0.5,0.5c0,1.407 -0.146,2.73 -0.479,4.293l-0.297,1.396l1.321,-0.188c0.603,0.05 3.933,0.447 4.334,0.55c0.058,0.03 0.132,0.183 0.111,0.323l-0.663,5.976z"/>
 </g>
</svg>