<svg width="24" height="24" xmlns="http://www.w3.org/2000/svg" baseProfile="tiny" version="1.2" xml:space="preserve">
 <g>
  <title>Layer 1</title>
  <path d="m19.57,10.56006c-0.391,-0.144 -2.512,-0.406 -3.883,-0.56c0.215,-1.255 0.313,-2.405 0.313,-3.616c0,-1.379 -1.122,-2.5 -2.5,-2.5s-2.5,1.121 -2.5,2.5c0,1.875 -0.666,2.738 -1.616,3.699c-0.548,-0.722 -1.407,-1.199 -2.384,-1.199c-1.654,0 -3,1.346 -3,3l0,6c0,1.654 1.346,3 3,3c0.755,0 1.438,-0.29 1.965,-0.752c0.064,0.062 0.117,0.141 0.188,0.193c0.96,0.736 3.667,1.559 5.848,1.559c1.879,0 2.608,-0.293 3.253,-0.553c0.104,-0.041 0.207,-0.084 0.316,-0.123c0.834,-0.305 1.576,-1.227 1.736,-2.2l0.666,-5.974c0.173,-1.037 -0.443,-2.125 -1.402,-2.474zm-12.57,8.324c-0.551,0 -1,-0.448 -1,-1l0,-6c0,-0.552 0.449,-1 1,-1s1,0.448 1,1l0,6c0,0.552 -0.449,1 -1,1z" id="svg_1"/>
 </g>

</svg>