<svg width="24" height="24" xmlns="http://www.w3.org/2000/svg" xml:space="preserve" version="1.2" baseProfile="tiny">

 <g>
  <title>Layer 1</title>
  <path id="svg_1" d="m17,5c-0.755,0 -1.438,0.289 -1.965,0.751c-0.064,-0.062 -0.116,-0.14 -0.188,-0.192c-0.96,-0.737 -3.665,-1.559 -5.847,-1.559c-1.879,0 -2.607,0.293 -3.252,0.552c-0.103,0.042 -0.207,0.085 -0.316,0.124c-0.834,0.305 -1.578,1.229 -1.738,2.2l-0.664,5.972c-0.174,1.039 0.441,2.127 1.4,2.478c0.394,0.144 2.512,0.405 3.883,0.56c-0.215,1.256 -0.312,2.405 -0.312,3.616c0,1.379 1.121,2.5 2.5,2.5s2.5,-1.121 2.5,-2.5c0,-1.875 0.667,-2.737 1.616,-3.699c0.548,0.724 1.408,1.199 2.384,1.199c1.653,0 2.999,-1.347 2.999,-3l0,-6c-0.001,-1.656 -1.346,-3.002 -3,-3.002zm1,9c0,0.552 -0.448,1 -1,1s-1,-0.448 -1,-1l0,-6c0,-0.552 0.448,-1 1,-1s1,0.448 1,1l0,6z"/>
 </g>
</svg>